HIERARCHY
ROOT Hips
{
	OFFSET -0.001795 -0.223333 0.028219
	CHANNELS 6 Xposition Yposition Zposition Zrotation Yrotation Xrotation 
	JOINT LeftUpLeg
	{
		OFFSET 0.069520 -0.091406 -0.006815
		CHANNELS 3 Zrotation Yrotation Xrotation
		JOINT LeftLeg
		{
			OFFSET 0.034277 -0.375199 -0.004496
			CHANNELS 3 Zrotation Yrotation Xrotation
			JOINT LeftFoot
			{
				OFFSET -0.013596 -0.397961 -0.043693
				CHANNELS 3 Zrotation Yrotation Xrotation
				JOINT LeftToe
				{
					OFFSET 0.026358 -0.055791 0.119288
					CHANNELS 3 Zrotation Yrotation Xrotation
					End Site
					{
						OFFSET 0.000000 0.000000 0.000000
					}
				}
			}
		}
	}
	JOINT RightUpLeg
	{
		OFFSET -0.067670 -0.090522 -0.004320
		CHANNELS 3 Zrotation Yrotation Xrotation
		JOINT RightLeg
		{
			OFFSET -0.038290 -0.382569 -0.008850
			CHANNELS 3 Zrotation Yrotation Xrotation
			JOINT RightFoot
			{
				OFFSET 0.015774 -0.398415 -0.042312
				CHANNELS 3 Zrotation Yrotation Xrotation
				JOINT RightToe
				{
					OFFSET -0.025372 -0.048144 0.123348
					CHANNELS 3 Zrotation Yrotation Xrotation
					End Site
					{
						OFFSET 0.000000 0.000000 0.000000
					}
				}
			}
		}
	}
	JOINT Spine
	{
		OFFSET -0.002533 0.108963 -0.026696
		CHANNELS 3 Zrotation Yrotation Xrotation
		JOINT Spine1
		{
			OFFSET 0.005487 0.135180 0.001092
			CHANNELS 3 Zrotation Yrotation Xrotation
			JOINT Spine2
			{
				OFFSET 0.001457 0.052922 0.025425
				CHANNELS 3 Zrotation Yrotation Xrotation
				JOINT Neck
				{
					OFFSET -0.002778 0.213870 -0.042857
					CHANNELS 3 Zrotation Yrotation Xrotation
					JOINT Head
					{
						OFFSET 0.005152 0.064970 0.051349
						CHANNELS 3 Zrotation Yrotation Xrotation
						End Site
						{
							OFFSET 0.000000 0.000000 0.000000
						}
					}
				}
				JOINT LeftShoulder
				{
					OFFSET 0.078845 0.121749 -0.034090
					CHANNELS 3 Zrotation Yrotation Xrotation
					JOINT LeftArm
					{
						OFFSET 0.090977 0.030469 -0.008868
						CHANNELS 3 Zrotation Yrotation Xrotation
						JOINT LeftForeArm
						{
							OFFSET 0.259612 -0.012772 -0.027456
							CHANNELS 3 Zrotation Yrotation Xrotation
							JOINT LeftHand
							{
								OFFSET 0.249234 0.008986 -0.001171
								CHANNELS 3 Zrotation Yrotation Xrotation
								End Site
								{
									OFFSET 0.000000 0.000000 0.000000
								}
							}
						}
					}
				}
				JOINT RightShoulder
				{
					OFFSET -0.081759 0.118833 -0.038615
					CHANNELS 3 Zrotation Yrotation Xrotation
					JOINT RightArm
					{
						OFFSET -0.096012 0.032551 -0.009143
						CHANNELS 3 Zrotation Yrotation Xrotation
						JOINT RightForeArm
						{
							OFFSET -0.253742 -0.013329 -0.021401
							CHANNELS 3 Zrotation Yrotation Xrotation
							JOINT RightHand
							{
								OFFSET -0.255298 0.007772 -0.005559
								CHANNELS 3 Zrotation Yrotation Xrotation
								End Site
								{
									OFFSET 0.000000 0.000000 0.000000
								}
							}
						}
					}
				}
			}
		}
	}
}
MOTION
Frames: 16
Frame Time: 0.050000
0.000000 0.948881 0.000000 -0.022237 1.566302 2.849643 -2.827907 0.523602 4.039525 3.030853 0.171236 -8.250900 -2.474355 0.506595 11.441610 0.000000 0.000000 0.000000 2.511922 -0.465758 3.182456 -1.579827 -0.165409 -6.230194 6.797059 10.980782 8.382135 0.000000 0.000000 0.000000 6.026944 -0.014321 -1.072570 -0.321428 -0.110847 8.228290 -2.676508 2.079702 -1.117043 4.524370 -1.544181 -13.092041 0.000000 0.000000 0.000000 -31.897182 -11.164908 2.530097 -18.248992 7.187223 -2.417932 16.540483 -9.204359 -0.977118 0.000000 0.000000 0.000000 26.076964 9.835535 4.718877 20.648233 -4.746232 -2.535594 -10.129998 20.939982 -0.932062 0.000000 0.000000 0.000000 
-0.001816 0.947610 0.001937 -0.062301 1.924024 3.154743 -1.975195 0.493453 4.202692 1.882185 0.243239 -8.947051 -2.679236 0.142174 11.304611 0.000000 0.000000 0.000000 2.567230 -0.376739 2.435481 -1.280479 -0.127688 -5.206677 6.413721 10.743434 7.570350 0.000000 0.000000 0.000000 6.931465 -0.085255 -0.562642 -0.632042 0.047807 8.355148 -4.231079 2.756748 -1.493253 5.869306 -1.908054 -15.394204 0.000000 0.000000 0.000000 -30.321443 -12.380467 2.827374 -20.579884 8.026319 -2.784577 18.058459 -6.329015 -0.774657 0.000000 0.000000 0.000000 28.297921 7.114189 3.534004 20.066959 -4.800598 -2.556266 -9.400168 21.804254 -0.827229 0.000000 0.000000 0.000000 
-0.003461 0.946545 0.003613 -0.025755 2.192630 3.516519 -2.085460 0.464361 3.850736 2.256738 0.229292 -8.872632 -2.700249 -0.012987 10.956879 0.000000 0.000000 0.000000 2.548299 -0.387236 2.510567 -1.045026 -0.173081 -5.817560 6.299969 10.600473 7.453926 0.000000 0.000000 0.000000 7.847586 -0.086540 -0.809990 -1.589227 0.625388 6.288603 -3.835599 1.944879 0.695959 5.240902 -1.683759 -15.171302 0.000000 0.000000 0.000000 -29.532917 -12.086603 3.140540 -21.438943 9.396440 -3.261929 17.365163 -5.224589 -0.592330 0.000000 0.000000 0.000000 27.726917 8.450504 4.153383 21.162012 -7.112653 -3.008553 -9.493950 24.043353 -0.977929 0.000000 0.000000 0.000000 
-0.005374 0.946480 0.005059 0.036306 2.307492 3.527540 -1.708013 0.502167 4.431562 1.723557 0.284196 -9.772399 -2.892360 -0.167191 11.324378 0.000000 0.000000 0.000000 2.389247 -0.422668 2.860407 -0.624020 -0.219185 -6.283717 6.340798 10.575866 7.639288 0.000000 0.000000 0.000000 7.734187 -0.123771 -0.460110 -1.674217 0.665044 6.442940 -3.830310 2.188703 0.205710 5.251572 -1.499620 -16.237622 0.000000 0.000000 0.000000 -30.994179 -12.538107 3.248347 -20.551858 10.700913 -3.229681 18.832425 -2.452150 -0.299233 0.000000 0.000000 0.000000 29.037412 8.034740 4.038141 19.432672 -8.648442 -2.902150 -8.451060 24.636713 -0.809771 0.000000 0.000000 0.000000 
-0.007111 0.946621 0.006342 0.149014 2.386935 3.702120 -1.613307 0.487046 4.335340 1.563314 0.288535 -9.805504 -2.966044 -0.224730 11.457459 0.000000 0.000000 0.000000 2.430831 -0.428280 2.879933 -0.688760 -0.226371 -6.504503 6.331043 10.511495 7.714623 0.000000 0.000000 0.000000 7.820645 -0.123603 -0.527792 -1.786066 0.717708 6.685009 -3.985467 1.903816 -0.788669 5.712016 -1.934135 -15.101382 0.000000 0.000000 0.000000 -30.579666 -12.540472 3.294759 -19.899848 11.736273 -3.218975 17.830441 -0.942667 -0.091400 0.000000 0.000000 0.000000 28.505119 7.549831 3.566099 19.718921 -9.797721 -3.024818 -7.684648 26.830489 -0.727552 0.000000 0.000000 0.000000 
-0.008476 0.946246 0.007885 0.230146 2.517787 3.573692 -1.843968 0.538041 4.695660 2.018365 0.290313 -10.035893 -3.020443 -0.313058 11.426506 0.000000 0.000000 0.000000 2.161703 -0.458546 3.252277 -0.167058 -0.262597 -6.711102 6.311301 10.494826 7.694347 0.000000 0.000000 0.000000 7.789416 -0.141974 -0.329523 -1.723494 0.671111 7.095317 -4.009561 1.432387 -1.045959 5.219684 -1.583670 -15.711276 0.000000 0.000000 0.000000 -30.447894 -12.700283 3.583968 -19.740445 11.266590 -3.151597 17.971102 1.112265 0.162658 0.000000 0.000000 0.000000 27.935010 7.586718 3.390503 19.858240 -10.083448 -3.042940 -7.753279 28.520339 -0.804762 0.000000 0.000000 0.000000 
-0.009555 0.946094 0.009843 0.444334 2.721678 3.684424 -1.863075 0.521871 4.526694 1.820074 0.279292 -9.740219 -3.108581 -0.470922 11.351761 0.000000 0.000000 0.000000 2.254812 -0.480860 3.386338 -0.567179 -0.251865 -6.902561 6.174529 10.322163 7.536583 0.000000 0.000000 0.000000 7.644902 -0.130638 -0.434918 -1.629092 0.624288 6.607965 -4.231713 1.451323 -0.759404 5.372166 -1.649603 -15.795916 0.000000 0.000000 0.000000 -30.007102 -12.426342 3.339802 -18.644401 10.557315 -2.860044 17.854447 2.262181 0.298337 0.000000 0.000000 0.000000 27.413497 6.676372 2.863037 19.316595 -10.220250 -2.974839 -7.356839 28.815841 -0.711769 0.000000 0.000000 0.000000 
-0.010552 0.945737 0.012075 0.469889 2.868207 3.564921 -1.826022 0.523449 4.575378 1.874586 0.260016 -9.354105 -3.107661 -0.573062 11.081271 0.000000 0.000000 0.000000 2.418628 -0.561708 3.955758 -0.752363 -0.267969 -7.410278 6.143321 10.259739 7.550249 0.000000 0.000000 0.000000 7.717929 -0.125311 -0.473439 -1.792246 0.710947 6.525143 -4.206624 1.541911 -0.492118 5.307501 -1.621153 -15.680894 0.000000 0.000000 0.000000 -29.540144 -12.552732 3.386754 -17.986804 9.764100 -2.656275 18.087631 2.628370 0.345310 0.000000 0.000000 0.000000 26.648349 6.315745 2.678064 19.243164 -10.288279 -2.981361 -7.514060 28.227890 -0.723653 0.000000 0.000000 0.000000 
-0.011742 0.945639 0.014265 0.591731 2.997869 3.548227 -1.729951 0.533082 4.735859 1.655464 0.264738 -9.363035 -3.194323 -0.693364 11.108133 0.000000 0.000000 0.000000 2.452884 -0.638515 4.542761 -0.873444 -0.300533 -8.153297 6.167692 10.198147 7.744109 0.000000 0.000000 0.000000 7.593323 -0.114621 -0.549722 -1.650356 0.625650 6.692515 -4.489604 1.686272 -0.523509 5.355702 -1.632198 -15.620829 0.000000 0.000000 0.000000 -29.351626 -12.403303 3.166946 -17.371890 8.601590 -2.409593 19.089923 2.164229 0.303594 0.000000 0.000000 0.000000 26.288910 6.377319 2.818818 19.055600 -10.421210 -2.973201 -8.030601 26.630466 -0.777896 0.000000 0.000000 0.000000 
-0.013347 0.945162 0.016231 0.569972 3.033325 3.497839 -1.279640 0.497083 4.679419 1.110208 0.259803 -8.939688 -3.151676 -0.748054 10.826695 0.000000 0.000000 0.000000 2.705470 -0.733455 5.139592 -1.079215 -0.332532 -8.901777 6.225277 10.231293 7.890435 0.000000 0.000000 0.000000 7.647072 -0.125021 -0.451402 -1.838956 0.730602 6.567859 -4.309328 1.985240 -0.415253 5.383955 -1.680677 -15.260150 0.000000 0.000000 0.000000 -29.262371 -12.511038 3.128048 -16.683714 7.769274 -2.201612 19.481878 1.336885 0.196260 0.000000 0.000000 0.000000 25.936411 6.370161 2.912387 19.046807 -10.869844 -3.033699 -8.547081 24.773224 -0.808810 0.000000 0.000000 0.000000 
-0.015348 0.944511 0.018175 0.574043 3.152942 3.393839 -0.904285 0.448246 4.434764 0.715715 0.238915 -8.093725 -3.085325 -0.843014 10.348489 0.000000 0.000000 0.000000 2.852936 -0.783219 5.437321 -1.075677 -0.337838 -8.993500 6.148853 10.204202 7.698008 0.000000 0.000000 0.000000 7.602325 -0.134503 -0.332670 -1.817198 0.706857 6.915410 -4.575472 2.018779 -0.658652 5.501805 -1.740188 -15.203737 0.000000 0.000000 0.000000 -28.757106 -12.856181 3.287785 -16.660488 7.126577 -2.119522 19.843621 -0.043492 0.005373 0.000000 0.000000 0.000000 26.121466 6.589658 3.109723 18.932595 -11.224873 -3.049913 -8.934041 23.011901 -0.808070 0.000000 0.000000 0.000000 
-0.017611 0.943896 0.020300 0.533082 3.091186 3.402994 -0.670770 0.387800 3.940743 0.645372 0.201807 -6.985170 -2.882517 -0.760220 9.788035 0.000000 0.000000 0.000000 3.232213 -0.858061 5.773061 -1.415204 -0.349657 -9.390546 6.183560 10.298943 7.659993 0.000000 0.000000 0.000000 7.624843 -0.149588 -0.195968 -2.000513 0.812318 6.783215 -4.348861 2.216509 -0.645972 5.147096 -1.541973 -15.054899 0.000000 0.000000 0.000000 -28.680968 -13.213265 3.477735 -16.641220 6.480451 -2.046596 20.160865 -1.126024 -0.150309 0.000000 0.000000 0.000000 26.109819 6.676150 3.207713 19.335484 -12.101767 -3.225023 -9.533901 22.148017 -0.872688 0.000000 0.000000 0.000000 
-0.019974 0.943459 0.022905 0.516504 2.920702 3.275345 -0.415763 0.336077 3.534823 0.479721 0.163416 -5.688767 -2.643222 -0.601966 9.267364 0.000000 0.000000 0.000000 3.418111 -0.933477 6.225173 -1.477562 -0.363448 -9.673869 6.286426 10.503663 7.664560 0.000000 0.000000 0.000000 7.596864 -0.190493 0.237667 -1.731364 0.678440 6.464192 -4.736434 2.158990 -0.561557 5.164889 -1.511997 -15.357069 0.000000 0.000000 0.000000 -28.440762 -13.322335 3.568982 -16.647591 6.114619 -2.016184 20.087228 -2.356787 -0.322784 0.000000 0.000000 0.000000 26.491327 6.890296 3.355081 19.009358 -12.640814 -3.218277 -9.098006 21.341890 -0.767790 0.000000 0.000000 0.000000 
-0.022251 0.943143 0.025963 0.346059 2.472961 2.952705 -0.156570 0.267945 2.921010 0.491868 0.058298 -2.847156 -2.006479 -0.552492 7.015719 0.000000 0.000000 0.000000 3.622346 -1.046878 6.949171 -1.371484 -0.384622 -10.043998 6.580866 10.965092 7.865063 0.000000 0.000000 0.000000 7.565530 -0.250158 0.902564 -1.922961 0.809182 5.804521 -4.255335 1.829117 -0.465830 4.584574 -1.211110 -15.494983 0.000000 0.000000 0.000000 -28.197149 -13.031339 3.668364 -16.842082 6.011734 -2.080610 20.420176 -3.627339 -0.502180 0.000000 0.000000 0.000000 26.355362 6.898178 3.102050 19.105982 -13.416752 -3.290179 -8.685821 20.879052 -0.694090 0.000000 0.000000 0.000000 
-0.024349 0.942743 0.029125 0.184323 1.851164 2.633156 0.503331 0.148940 1.871429 -0.245572 -0.011326 1.129765 -1.373401 -0.722084 4.244894 0.000000 0.000000 0.000000 4.002152 -1.191738 7.773838 -1.678047 -0.407040 -10.600354 6.941818 11.526586 8.092497 0.000000 0.000000 0.000000 7.555604 -0.316655 1.634494 -1.754450 0.743385 5.402298 -4.312854 1.815584 -0.500025 4.420335 -1.194111 -15.074681 0.000000 0.000000 0.000000 -28.306879 -12.980853 3.748566 -16.693304 5.665811 -2.041902 20.343957 -4.177440 -0.572011 0.000000 0.000000 0.000000 26.927579 6.965482 3.044583 18.897499 -13.986402 -3.293438 -8.002787 20.492317 -0.578221 0.000000 0.000000 0.000000 
-0.026009 0.941730 0.032233 0.098684 1.390649 2.739814 1.312336 -0.109813 -1.039703 -1.120873 -0.094242 8.179293 -1.051195 -2.033370 0.409534 0.000000 0.000000 0.000000 4.040914 -1.230639 8.035786 -1.503229 -0.426547 -10.947593 7.169659 11.987347 8.071403 0.000000 0.000000 0.000000 7.493230 -0.331862 1.787019 -1.935985 0.850878 5.386150 -3.760995 0.929459 -0.407605 3.083713 -0.601825 -14.278020 0.000000 0.000000 0.000000 -28.919815 -12.360910 3.874972 -16.492967 5.448706 -2.070723 19.942798 -4.038261 -0.511986 0.000000 0.000000 0.000000 27.262791 7.785594 3.089801 19.143752 -14.389698 -3.332031 -8.021472 19.420320 -0.563138 0.000000 0.000000 0.000000 
